<svg width="501" height="75" viewBox="0 0 501 75" fill="none" xmlns="http://www.w3.org/2000/svg"><path d="M451.374 53.636c-.689-1.406-2.843-2.071-2.843-2.071-1.206-.666-.172-1.332-.172-1.332l5.256-5.991c1.033-.962 1.895-.222 1.895-.222l2.326 1.775c-3.963 3.477-6.462 7.841-6.462 7.841zm-10.597 14.203c-1.206 1.553-1.206.222-1.206.222l-1.551-5.474c4.05-2.22 8.444-2.96 8.444-2.96l-5.687 8.212zm-95.546-15.535l-5.255 2.663-2.154.444c-2.326-.74-2.671-2.44-2.671-2.44-1.034-.74.172-1.554.172-1.554l10.77-4.364 1.551 1.627-2.413 3.624zm-28.173-12.723s2.068-.222.603.666c0 0-11.889 1.184-30.498 5.474l1.636-1.183s.948-.888-.172-1.184l-3.015-1.997s16.714-1.554 31.446-1.776zm176.963 9.099l-29.982 3.255s3.533-5.178 7.582-7.25c0 0 .517-.887-.862-1.553l-6.375-4.512s-1.379-1.11-1.723.296l-2.499 3.624-3.36-2.515s-.861-.518-2.498-.296l-6.72 1.554s-1.896-.074-2.154 1.331l-6.203 7.25s-.69.517-.345 1.405l-5.255 1.85s.861-3.477 5.514-6.658c0 0 .516-.296-.173-1.332l-3.015-3.476s-.517-.888-2.326.074l-8.099 3.846V44.39s.517-.443-.172-.74l-4.567-3.92s-1.033-.666-2.326-.148l-9.305 11.244-9.563 4.069h-2.154s-.517-.518.173-1.332c0 0 5.944-5.918 11.458-8.063 0 0 1.206-.444.173-1.405l-3.188-3.699s-1.896-.666-3.016.222c0 0-12.492 11.688-26.449 14.35 0 0-2.154 1.184-3.533-1.11l-1.723-5.99s-.344-.519.862-.889l9.563-2.958s1.982-.444.862 1.849l-.173 1.775s.173.666 1.206.518h2.671s1.034-.074 1.551-1.331l1.379-3.477s1.033-1.627.516-3.477c0 0 0-1.405-5.6-.666l-17.231 4.735s-1.55.444-1.55 1.331l-5.084 8.063-4.91 3.033-1.982-.962s-.862-.517-.172-1.627c0 0 1.981-3.403 9.821-8.655 0 0 1.034-.444.173-1.331 0 0-2.068-2.22-5.428-3.625 0 0-.689-.518-1.206.222l-6.031 4.956s-.517-2.663-2.843-4.068c0 0-.862-1.11-3.36.074l-17.662 7.767s-2.843 1.11-1.206 4.142l.603 2.515.172.444c-3.963-.666-21.28-3.255-50.918-4.216l1.293-1.11s27.225-5.03 53.071-8.063c0 0 3.36-1.11.517-2.737l-5.169-4.512s-41.355 1.553-91.239 8.063c0 0-.947 2.219 1.637 2.44l5.945 2.22s.775.666 1.637.074c0 0 5.428-2.81 27.742-5.03L257.784 50.9l-14.302 1.775s-1.293.222-.345.888l2.413 1.85s.344.665 1.723.295l5.427-.887-11.372 8.654s-1.12 1.406 2.24 1.554c0 0 5.255.665 11.2 2.515 0 0 2.068-.518 2.413-2.22l13.181-9.986s23.09-1.997 58.672 6.584l.086.148s.086-.074.086-.148c.173.074.345.074.431.148l-.172-.444c.603-.518 1.637-1.11 2.929-1.331 0 0 1.895.887 4.566.517l8.271-4.956 6.031 4.143s1.379.887 2.499 0c0 0 2.843-.962 7.409-4.143l6.548 4.586s.861.666 2.154.074L380.986 58l5.083-2.81s1.981 2.662 5.428 4.142c0 0 1.809 1.627 4.566.074l10.08-3.92s-.862.665-.172 1.183c0 0 4.911 1.405 5.772 2.589 0 0 1.809.961 2.499-.518l6.461-8.063 7.41-3.255-6.031 8.655s.517 2.22 5.772 3.18l11.459-5.4s1.551 1.554 3.532 2.516c0 0-7.581 1.997-12.32 4.29 0 0-1.809.444-.862 1.998l4.05 11.465s.689 1.554 3.704.518l9.133-2.959s1.378 0 2.154-.74L460.852 56.3s18.178-3.846 26.622-4.069c0 0-.862-1.553 5.427-2.07l1.551-.74c-.086-.074 1.12-.74-.431-.74zM234.435 27.82c-18.781 6.435-45.834 7.989-45.834 7.989l14.905-10.652 28.259-1.406c9.391 1.406 2.67 4.069 2.67 4.069zm12.838-13.611c-24.727 6.436-37.478 5.992-37.478 5.992l2.585-2.22c1.895-1.405-.603-1.849-.603-1.849l-2.413-1.553c22.056-2.367 37.909-.37 37.909-.37zm-82.451 9.394l-1.551 1.628c-4.394.961-7.065-1.628-7.065-1.628 2.844-1.553 7.238-2.589 7.238-2.589 3.618 1.628 1.378 2.59 1.378 2.59zm-4.997 5.4c-1.034.962-3.188.962-3.188.962l-8.788 1.405-1.378-.887c-2.499-1.11 0-2.071 0-2.071 1.723-2.737 4.911-3.255 4.911-3.255 4.566 2.737 11.114 1.85 11.114 1.85l-2.671 1.996zm138.538-4.808s-.69 1.85 9.908 2.515l-4.394 3.255-8.788.444s-.862.222-1.034-.666l-1.379-1.331 5.687-4.217zm11.631-3.18l.861 2.293s-4.911 2.515-8.788-1.184l7.927-1.11zm26.105 2.07l13.612-9.32 9.477.296-12.148 9.395-6.547 1.849s-1.551.74-3.36.222l-1.379-1.11c0 .074-1.378-.222.345-1.331zm75.299-6.583c.69-.887 1.551-.74 1.551-.74l3.877-.665c1.034-.74 2.068.444 2.068.444l.172 1.331c-.344 1.405-2.067 1.331-2.067 1.331l-10.77 2.515 5.169-4.216zm54.451 2.885s2.154-.148 1.378 1.553l-5.083 3.033s-.689.74-2.068.74l-2.671-.148 8.444-5.178zM245.98 30.631c1.551.37 4.567.74 6.462.148 0 0 4.911-1.628 11.286-5.474l-2.326 3.624s-1.551.888.345 1.554l7.409 3.402s1.982 1.184 4.394 0l10.769-3.92 3.533 3.403s1.551 1.405 4.911.665c0 0 1.895-.961 11.975-.443 0 0 2.843.887 4.394.295 0 0 9.477-6.213 9.908-8.654 0 0 1.723-1.406 3.015-.074l8.444 5.4s1.206.74 2.843.074l13.957-4.29-.689 2.81 2.154 2.072s1.723 1.183 4.049.221c0 0 13.957-14.35 26.105-14.572l-12.837 9.172s-1.206.74 0 1.85l3.877 2.959s2.843 1.183 7.064-.222l11.287-3.403 8.788 4.734s3.187 1.184 7.409.296c0 0 16.197-3.699 30.154-10.282 0 0-.344 1.997-3.704 3.92 0 0-1.206.518.172 1.332l6.203 3.403s2.326 1.405 6.376-.296l7.754-2.663s5.427 2.219 16.197 3.033c0 0 23.089.074 33.342-6.584 0 0-18.523 3.477-28.948 1.628 0 0 4.911-1.406 6.892-3.92 0 0 1.034-1.628-.689-4.143l-5.083-8.433-10.942 4.364 1.551 4.069s-6.203 3.846-19.04 8.95c0 0-1.034.74-1.896.074l-2.154-1.331 7.582-5.178s3.015-1.11 1.637-1.998l-6.031-6.435s-1.895-1.11-2.843-.074c0 0-11.803 13.019-34.204 15.312l-4.049-2.44 16.886-4.513s3.705-.888 2.843-3.699l-.861-4.512s.345-.74-1.379-.518l-16.369 1.627s-3.36.666-5.083 2.441c0 0-4.739 3.033-10.253 9.765 0 0-1.55-.666-4.049.074l-2.498.518s-2.327.665-1.379-.444l7.065-4.808 3.704-.518 1.551-1.776-1.378-.887-2.499-5.252s-1.378-1.11-3.015-.666l-8.96 2.293s4.911-3.624 9.649-5.474l3.188-.518s1.551-1.183-.345-2.219l-2.498-1.331-3.533-3.92s-2.67-.74-4.566.443L362.807 10.88l-8.099-.074 2.671-1.183s1.379-.666.172-1.998l-4.393-4.808s-1.379-1.405-4.394-.296l-10.942 7.546s-34.204-.444-52.555.443c0 0-2.498 0-1.981 1.11l5.083 3.625 12.32-.666 32.05-.444-11.114 7.989-3.188-.074s-.345-2.22-2.499-2.81c0 0-.689-.519-1.895.221l-2.499-.148v-1.331l-1.895-2.515s-7.582-.222-13.699 1.775c0 0-5.514 1.11-12.837 7.915 0 0-2.067.444-.689 2.44l-6.203 2.516-4.049-1.997s5.6-4.808 8.96-5.252c0 0 1.723-.962.172-1.406 0 0-4.049-1.775-6.376-5.474 0 0-1.55-.961-2.326.074L252.528 28.19s-1.034.887-3.015.444c0 0-1.379-.222-2.24-.888 0-.444-.087-.888-.173-1.406-.344-1.479-1.206-2.959-1.206-2.959s.172-.961-1.637-1.11l-7.495-.739s16.369-.961 26.794-3.18c0 0 1.895-.666.948-1.776l-8.53-6.362s-51.607-2.958-88.05 3.921c0 0-1.293.444.172 1.184 0 0 3.791 2.145 9.219 3.624l2.067.74c-1.464.814-3.877 1.923-6.72 2.441 0 0-.689-1.405-1.551-2.293 0 0-.517-.666-1.723-.74 0 0-1.378-.222-5.772.296 0 0-.862-2.22-3.188-3.403 0 0-1.206-.518-2.671-.296 0 0-3.704.444-7.926 2.96 0 0-1.723-.075-3.015.739 0 0-4.394.888-8.961-1.184 0 0-1.378-.665-2.67.444l-4.05 4.365s-2.671 2.663-8.788 3.254c0 0 1.724-3.032 5.084-4.364 0 0 3.015 0 2.326-1.11 0 0-2.326-4.142-7.754-5.917l-10.425 7.249-2.068.222s-5.686 2.663-11.975 4.956c0 0 4.566-4.956 8.96-6.657 0 0 3.015 0 1.723-1.776l-3.36-2.663s-.862-1.85-3.705-.296c0 0-7.065 3.625-14.474 10.504 0 0-3.188 1.776.345 2.22 0 0 3.36-.222 6.203 4.29 0 0 1.206.518 2.154-.222 0 0 5.6-4.068 13.44-6.362l-1.551 1.85s-1.206.296.517.961l2.671 1.628s2.671.518 3.705 2.737c0 0 1.981.961 4.221.074 0 0 1.551-1.85 5.6-2.737 0 0 5.256-.074 13.958-9.32 0 0 1.723.887 4.566.517 0 0-5.083 2.81-6.72 5.992 0 0-.862.665.344 1.405l5.859 5.252s1.723.888 3.877 0c0 0 9.132-1.405 17.231-1.85 0 0 3.877-.221 4.911-2.81l3.36-4.956s6.461-1.701 10.855-4.438c.517.221 1.637.591 2.585-.148l5.945-3.403s3.36-1.332 6.375-1.11l-9.305 6.658-5.944.222s-2.413.222-1.293 1.553l2.068 1.184s.776.074 0 .665l-17.834 12.132s-9.649 2.071-18.093 1.997c0 0-2.412.444-.344 1.11l3.36 1.849 10.769-1.627-4.308 3.624s-2.067 1.184-.344 2.071l2.24 2.663s2.24.962 3.877-.074c0 0 1.637-1.997 5.255-2.515l9.477-3.18s3.36-.296 3.705-1.332l3.016-3.403c.172 0 59.361-4.364 62.548-8.95zM139.148 9.845s.603-1.554-2.585-2.22c0 0-1.895.222-2.585-1.553 0 0-61.6-1.997-122.512 7.027 0 0-.948.888.344 1.776l8.702 5.918s1.292 1.11 3.188.221c0 0 20.677-3.846 33.514-3.846 0 0 11.545-2.293 8.357-2.959-3.188-.666-14.905.444-14.905.444s21.194-3.699 47.127-3.92c0 0-37.477 4.364-96.838 27.147 0 0-1.896.888-.345 2.22l4.05 2.218s2.842 2.663 5.772 1.11c0 0 3.015-1.184 6.72-.74 0 0 1.723.962 4.308-.962 0 0 .344-1.33 7.064-3.476 0 0 38.167-17.753 88.482-27.592 0-.148 9.046-1.257 22.142-.813zM412.26 34.55c-.345-1.331-2.498-.74-2.498-.74l-3.188 1.776c-1.551 1.405-.517 2.959-.517 2.959 2.498.296 3.877 3.846 3.877 3.846 1.551 1.332 2.671.296 2.671.296l1.034-.444c1.206.222 1.033-1.331 1.033-1.331-.344-4.808-2.412-6.362-2.412-6.362z" fill="#FAFF00"/></svg>