<svg width="250" height="57" viewBox="0 0 250 57" fill="none" xmlns="http://www.w3.org/2000/svg"><path d="M62.858 27.48l3.3-3.183 11.265.044v3.139h31.07s-3.982-2.078-3.93-4.155c.105-8.53 33.008-9.15 36.361-6.011l-3.51 6.01c-2.882-.883-7.073-1.767-10.269-1.767-7.702 0-9.012 3.845-1.572 3.536l-1.729 3.58s-.315.044-2.201.044c-7.597 0-9.483 3.36.367 3.536 6.025.133 6.811-2.961 4.087-3.58l1.991-3.58 20.276-.044 10.95-23.294h-18.6l-5.186 9.857-4.768-9.769h-20.538L100.11 22 98.066 1.843h-29.13L43.053 27.48h19.805zm14.984-15.647v4.994h-5.396l5.396-4.994zM37.5 27.48L63.695 1.8H43.63L29.797 16.031l-.734-14.189H7.53l.943 25.637H37.5z" fill="#FF3000"/><path d="M193.003 25.667l4.663-8.398c-34.265 6.984-23.839-12.774 2.568-5.657l4.453-8c-48.045-16.708-77.804 35.979-11.684 22.055zM44.101 29.91l-4.558 8.664H30.53l4.453-8.663H12.717L.3 55.59h21.848l3.668-7.116h8.645l-3.668 7.116h22.163l12.417-25.68H44.1zm147.697 10.3c-.524 4.729 11.16 5.657 12.732 6.055 1.572.398 2.148 1.9.105 2.254-5.973 1.017-14.566-1.15-16.662-2.696l-3.615 6.984c1.991 2.519 45.635 9.591 47.312-6.012.628-5.834-11.317-5.967-14.147-6.144-2.41-.176-2.567-2.21.158-2.43 4.977-.398 11.893.441 14.146 2.121l3.825-7.426c-3.249-3.27-42.177-7.248-43.854 7.293zM69.879 29.91L57.46 55.592h22.687l12.94-25.68h-23.21zm176.67-20.995L249.85 1.8h-40.657l-12.156 25.725 40.605-.044 3.668-7.912-18.233.044 1.519-2.387h17.762l3.196-6.32h-18.338l1.153-1.99h18.18z" fill="#FF3000"/><path d="M165.235 47.282l1.257-2.343h18.967l2.724-5.923h-19.124l1.415-2.431h18.757l3.196-6.674h-41.391l-11.998 25.68h41.129l4.191-8.31h-19.123zM141.762 29.91c-5.396 12.112-45.425 11.89-42.334 2.343h-3.772L84.653 55.591h19.386l5.03-9.503 4.506 9.503h20.538l12.836-25.68h-5.187z" fill="#FF3000"/></svg>