<svg width="501" height="75" viewBox="0 0 501 75" fill="none" xmlns="http://www.w3.org/2000/svg">
<path d="M451.374 53.636C450.685 52.2305 448.531 51.5648 448.531 51.5648C447.325 50.8991 448.359 50.2333 448.359 50.2333L453.615 44.2416C454.648 43.2799 455.51 44.0197 455.51 44.0197L457.836 45.795C453.873 49.2717 451.374 53.636 451.374 53.636ZM440.777 67.8386C439.571 69.392 439.571 68.0605 439.571 68.0605L438.02 62.5866C442.07 60.3674 446.464 59.6277 446.464 59.6277L440.777 67.8386ZM345.231 52.3045L339.976 54.9675L337.822 55.4113C335.496 54.6716 335.151 52.9703 335.151 52.9703C334.117 52.2305 335.323 51.4168 335.323 51.4168L346.093 47.0525L347.644 48.6799L345.231 52.3045ZM317.058 39.5814C317.058 39.5814 319.126 39.3594 317.661 40.2471C317.661 40.2471 305.772 41.4306 287.163 45.721L288.799 44.5375C288.799 44.5375 289.747 43.6498 288.627 43.3539L285.612 41.3567C285.612 41.3567 302.326 39.8033 317.058 39.5814ZM494.021 48.6799L464.039 51.9347C464.039 51.9347 467.572 46.7566 471.621 44.6854C471.621 44.6854 472.138 43.7977 470.759 43.132L464.384 38.6197C464.384 38.6197 463.005 37.5101 462.661 38.9156L460.162 42.5402L456.802 40.0252C456.802 40.0252 455.941 39.5074 454.304 39.7293L447.584 41.2827C447.584 41.2827 445.688 41.2087 445.43 42.6142L439.227 49.8634C439.227 49.8634 438.537 50.3812 438.882 51.2689L433.627 53.1182C433.627 53.1182 434.488 49.6415 439.141 46.4607C439.141 46.4607 439.657 46.1648 438.968 45.1292L435.953 41.6526C435.953 41.6526 435.436 40.7649 433.627 41.7265L425.528 45.5731V44.3895C425.528 44.3895 426.045 43.9457 425.356 43.6498L420.789 39.7293C420.789 39.7293 419.756 39.0635 418.463 39.5814L409.158 50.8251L399.595 54.8935H397.441C397.441 54.8935 396.924 54.3757 397.614 53.562C397.614 53.562 403.558 47.6443 409.072 45.4991C409.072 45.4991 410.278 45.0553 409.245 44.0936L406.057 40.395C406.057 40.395 404.161 39.7293 403.041 40.617C403.041 40.617 390.549 52.3045 376.592 54.9675C376.592 54.9675 374.438 56.151 373.059 53.8579L371.336 47.8662C371.336 47.8662 370.992 47.3484 372.198 46.9785L381.761 44.0197C381.761 44.0197 383.743 43.5758 382.623 45.869L382.45 47.6443C382.45 47.6443 382.623 48.31 383.656 48.1621H386.327C386.327 48.1621 387.361 48.0881 387.878 46.8306L389.257 43.3539C389.257 43.3539 390.29 41.7265 389.773 39.8772C389.773 39.8772 389.773 38.4718 384.173 39.2115L366.942 43.9457C366.942 43.9457 365.392 44.3895 365.392 45.2772L360.308 53.3401L355.398 56.373L353.416 55.4113C353.416 55.4113 352.554 54.8935 353.244 53.784C353.244 53.784 355.225 50.3812 363.065 45.1292C363.065 45.1292 364.099 44.6854 363.238 43.7978C363.238 43.7978 361.17 41.5786 357.81 40.1731C357.81 40.1731 357.121 39.6553 356.604 40.395L350.573 45.3511C350.573 45.3511 350.056 42.6882 347.73 41.2827C347.73 41.2827 346.868 40.1731 344.37 41.3567L326.708 49.1237C326.708 49.1237 323.865 50.2333 325.502 53.2661L326.105 55.7812L326.277 56.225C322.314 55.5593 304.997 52.9702 275.359 52.0086L276.652 50.899C276.652 50.899 303.877 45.869 329.723 42.8361C329.723 42.8361 333.083 41.7265 330.24 40.0992L325.071 35.5869C325.071 35.5869 283.716 37.1403 233.832 43.6498C233.832 43.6498 232.885 45.8689 235.469 46.0909L241.414 48.31C241.414 48.31 242.189 48.9758 243.051 48.384C243.051 48.384 248.479 45.5731 270.793 43.3539L257.784 50.899L243.482 52.6744C243.482 52.6744 242.189 52.8963 243.137 53.562L245.55 55.4113C245.55 55.4113 245.894 56.0771 247.273 55.7072L252.7 54.8196L241.328 63.4743C241.328 63.4743 240.208 64.8797 243.568 65.0277C243.568 65.0277 248.823 65.6934 254.768 67.5427C254.768 67.5427 256.836 67.0249 257.181 65.3236L270.362 55.3373C270.362 55.3373 293.452 53.3401 329.034 61.9209L329.12 62.0688C329.12 62.0688 329.206 61.9948 329.206 61.9209C329.379 61.9948 329.551 61.9948 329.637 62.0688L329.465 61.625C330.068 61.1072 331.102 60.5154 332.394 60.2935C332.394 60.2935 334.289 61.1811 336.96 60.8113L345.231 55.8552L351.262 59.9976C351.262 59.9976 352.641 60.8853 353.761 59.9976C353.761 59.9976 356.604 59.036 361.17 55.8552L367.718 60.4414C367.718 60.4414 368.579 61.1072 369.872 60.5154L380.986 58.0003L386.069 55.1894C386.069 55.1894 388.05 57.8524 391.497 59.3318C391.497 59.3318 393.306 60.9592 396.063 59.4058L406.143 55.4853C406.143 55.4853 405.281 56.1511 405.971 56.6689C405.971 56.6689 410.882 58.0743 411.743 59.2579C411.743 59.2579 413.552 60.2195 414.242 58.7401L420.703 50.6771L428.113 47.4224L422.082 56.0771C422.082 56.0771 422.599 58.2962 427.854 59.2579L439.313 53.8579C439.313 53.8579 440.864 55.4113 442.845 56.373C442.845 56.373 435.264 58.3702 430.525 60.6633C430.525 60.6633 428.716 61.1072 429.663 62.6606L433.713 74.1262C433.713 74.1262 434.402 75.6796 437.417 74.644L446.55 71.6851C446.55 71.6851 447.928 71.6851 448.704 70.9454L460.852 56.299C460.852 56.299 479.03 52.4525 487.474 52.2305C487.474 52.2305 486.612 50.6771 492.901 50.1593L494.452 49.4196C494.366 49.3456 495.572 48.6799 494.021 48.6799ZM234.435 27.8198C215.654 34.2554 188.601 35.8088 188.601 35.8088L203.506 25.1568L231.765 23.7514C241.156 25.1568 234.435 27.8198 234.435 27.8198ZM247.273 14.209C222.546 20.6446 209.795 20.2007 209.795 20.2007L212.38 17.9816C214.275 16.5761 211.777 16.1323 211.777 16.1323L209.364 14.5789C231.42 12.2118 247.273 14.209 247.273 14.209ZM164.822 23.6034L163.271 25.2308C158.877 26.1924 156.206 23.6034 156.206 23.6034C159.05 22.05 163.444 21.0144 163.444 21.0144C167.062 22.6418 164.822 23.6034 164.822 23.6034ZM159.825 29.0034C158.791 29.965 156.637 29.965 156.637 29.965L147.849 31.3705L146.471 30.4828C143.972 29.3732 146.471 28.4116 146.471 28.4116C148.194 25.6746 151.382 25.1568 151.382 25.1568C155.948 27.8938 162.496 27.0061 162.496 27.0061L159.825 29.0034ZM298.363 24.1952C298.363 24.1952 297.673 26.0445 308.271 26.7103L303.877 29.965L295.089 30.4088C295.089 30.4088 294.227 30.6308 294.055 29.7431L292.676 28.4116L298.363 24.1952ZM309.994 21.0144L310.855 23.3075C310.855 23.3075 305.944 25.8226 302.067 22.124L309.994 21.0144ZM336.099 23.0856L349.711 13.7652L359.188 14.0611L347.04 23.4555L340.493 25.3048C340.493 25.3048 338.942 26.0445 337.133 25.5267L335.754 24.4171C335.754 24.4911 334.376 24.1952 336.099 23.0856ZM411.398 16.5021C412.088 15.6145 412.949 15.7624 412.949 15.7624L416.826 15.0967C417.86 14.3569 418.894 15.5405 418.894 15.5405L419.066 16.872C418.722 18.2774 416.999 18.2035 416.999 18.2035L406.229 20.7185L411.398 16.5021ZM465.849 19.387C465.849 19.387 468.003 19.2391 467.227 20.9404L462.144 23.9733C462.144 23.9733 461.455 24.713 460.076 24.713L457.405 24.5651L465.849 19.387ZM245.98 30.6307C247.531 31.0006 250.547 31.3705 252.442 30.7787C252.442 30.7787 257.353 29.1513 263.728 25.3048L261.402 28.9294C261.402 28.9294 259.851 29.8171 261.747 30.4828L269.156 33.8855C269.156 33.8855 271.138 35.0691 273.55 33.8855L284.319 29.965L287.852 33.3677C287.852 33.3677 289.403 34.7732 292.763 34.0335C292.763 34.0335 294.658 33.0718 304.738 33.5896C304.738 33.5896 307.581 34.4773 309.132 33.8855C309.132 33.8855 318.609 27.6719 319.04 25.2308C319.04 25.2308 320.763 23.8253 322.055 25.1568L330.499 30.5568C330.499 30.5568 331.705 31.2965 333.342 30.6307L347.299 26.3404L346.61 29.1513L348.764 31.2225C348.764 31.2225 350.487 32.4061 352.813 31.4444C352.813 31.4444 366.77 17.0939 378.918 16.872L366.081 26.0445C366.081 26.0445 364.875 26.7842 366.081 27.8938L369.958 30.8527C369.958 30.8527 372.801 32.0362 377.022 30.6307L388.309 27.228L397.097 31.9623C397.097 31.9623 400.284 33.1458 404.506 32.2581C404.506 32.2581 420.703 28.5595 434.66 21.9761C434.66 21.9761 434.316 23.9733 430.956 25.8966C430.956 25.8966 429.75 26.4143 431.128 27.228L437.331 30.6307C437.331 30.6307 439.657 32.0362 443.707 30.3349L451.461 27.6719C451.461 27.6719 456.888 29.891 467.658 30.7047C467.658 30.7047 490.747 30.7787 501 24.1212C501 24.1212 482.477 27.5979 472.052 25.7486C472.052 25.7486 476.963 24.3431 478.944 21.8281C478.944 21.8281 479.978 20.2007 478.255 17.6857L473.172 9.25288L462.23 13.6172L463.781 17.6857C463.781 17.6857 457.578 21.5322 444.741 26.6363C444.741 26.6363 443.707 27.376 442.845 26.7103L440.691 25.3787L448.273 20.2007C448.273 20.2007 451.288 19.0911 449.91 18.2035L443.879 11.7679C443.879 11.7679 441.984 10.6583 441.036 11.6939C441.036 11.6939 429.233 24.713 406.832 27.0061L402.783 24.5651L419.669 20.0528C419.669 20.0528 423.374 19.1651 422.512 16.3542L421.651 11.8419C421.651 11.8419 421.996 11.1022 420.272 11.3241L403.903 12.9515C403.903 12.9515 400.543 13.6172 398.82 15.3925C398.82 15.3925 394.081 18.4254 388.567 25.1568C388.567 25.1568 387.017 24.4911 384.518 25.2308L382.02 25.7486C382.02 25.7486 379.693 26.4144 380.641 25.3048L387.706 20.4966L391.41 19.9788L392.961 18.2035L391.583 17.3158L389.084 12.0638C389.084 12.0638 387.706 10.9542 386.069 11.3981L377.109 13.6912C377.109 13.6912 382.02 10.0666 386.758 8.21728L389.946 7.69947C389.946 7.69947 391.497 6.51592 389.601 5.48031L387.103 4.14883L383.57 0.228306C383.57 0.228306 380.9 -0.511409 379.004 0.672141L362.807 10.8803L354.708 10.8063L357.379 9.62274C357.379 9.62274 358.758 8.95699 357.551 7.62549L353.158 2.81732C353.158 2.81732 351.779 1.41186 348.764 2.52144L337.822 10.0666C337.822 10.0666 303.618 9.62275 285.267 10.5104C285.267 10.5104 282.769 10.5104 283.286 11.62L288.369 15.2446L300.689 14.5789L332.739 14.135L321.625 22.124L318.437 22.05C318.437 22.05 318.092 19.8309 315.938 19.2391C315.938 19.2391 315.249 18.7213 314.043 19.461L311.544 19.3131V17.9816L309.649 15.4665C309.649 15.4665 302.067 15.2446 295.95 17.2418C295.95 17.2418 290.436 18.3514 283.113 25.1568C283.113 25.1568 281.046 25.6007 282.424 27.5979L276.221 30.113L272.172 28.1157C272.172 28.1157 277.772 23.3075 281.132 22.8637C281.132 22.8637 282.855 21.9021 281.304 21.4582C281.304 21.4582 277.255 19.6829 274.928 15.9843C274.928 15.9843 273.378 15.0227 272.602 16.0583L252.528 28.1897C252.528 28.1897 251.494 29.0774 249.513 28.6335C249.513 28.6335 248.134 28.4116 247.273 27.7459C247.273 27.302 247.186 26.8582 247.1 26.3404C246.756 24.861 245.894 23.3815 245.894 23.3815C245.894 23.3815 246.066 22.4199 244.257 22.2719L236.762 21.5322C236.762 21.5322 253.131 20.5706 263.556 18.3514C263.556 18.3514 265.451 17.6857 264.504 16.5761L255.974 10.2145C255.974 10.2145 204.367 7.25565 167.924 14.135C167.924 14.135 166.631 14.5789 168.096 15.3186C168.096 15.3186 171.887 17.4638 177.315 18.9432L179.382 19.6829C177.918 20.4966 175.505 21.6062 172.662 22.124C172.662 22.124 171.973 20.7185 171.111 19.8309C171.111 19.8309 170.594 19.1651 169.388 19.0911C169.388 19.0911 168.01 18.8692 163.616 19.387C163.616 19.387 162.754 17.1679 160.428 15.9843C160.428 15.9843 159.222 15.4665 157.757 15.6884C157.757 15.6884 154.053 16.1323 149.831 18.6473C149.831 18.6473 148.108 18.5733 146.816 19.387C146.816 19.387 142.422 20.2747 137.855 18.2035C137.855 18.2035 136.477 17.5377 135.185 18.6473L131.135 23.0117C131.135 23.0117 128.464 25.6746 122.347 26.2664C122.347 26.2664 124.071 23.2336 127.431 21.9021C127.431 21.9021 130.446 21.9021 129.757 20.7925C129.757 20.7925 127.431 16.6501 122.003 14.8747L111.578 22.124L109.51 22.3459C109.51 22.3459 103.824 25.0089 97.5347 27.302C97.5347 27.302 102.101 22.3459 106.495 20.6445C106.495 20.6445 109.51 20.6446 108.218 18.8692L104.858 16.2062C104.858 16.2062 103.996 14.3569 101.153 15.9104C101.153 15.9104 94.0885 19.535 86.6791 26.4144C86.6791 26.4144 83.4914 28.1897 87.0238 28.6335C87.0238 28.6335 90.3838 28.4116 93.2269 32.9239C93.2269 32.9239 94.4331 33.4417 95.3808 32.702C95.3808 32.702 100.981 28.6335 108.821 26.3404L107.27 28.1897C107.27 28.1897 106.064 28.4856 107.787 29.1513L110.458 30.7787C110.458 30.7787 113.129 31.2965 114.163 33.5156C114.163 33.5156 116.144 34.4773 118.384 33.5896C118.384 33.5896 119.935 31.7403 123.984 30.8527C123.984 30.8527 129.24 30.7787 137.942 21.5322C137.942 21.5322 139.665 22.4199 142.508 22.05C142.508 22.05 137.425 24.8609 135.788 28.0417C135.788 28.0417 134.926 28.7075 136.132 29.4472L141.991 34.6992C141.991 34.6992 143.714 35.5869 145.868 34.6992C145.868 34.6992 155 33.2937 163.099 32.8499C163.099 32.8499 166.976 32.628 168.01 30.039L171.37 25.0829C171.37 25.0829 177.831 23.3815 182.225 20.6445C182.742 20.8665 183.862 21.2363 184.81 20.4966L190.755 17.0939C190.755 17.0939 194.115 15.7624 197.13 15.9843L187.825 22.6418L181.881 22.8637C181.881 22.8637 179.468 23.0856 180.588 24.4171L182.656 25.6007C182.656 25.6007 183.432 25.6746 182.656 26.2664L164.822 38.3978C164.822 38.3978 155.173 40.469 146.729 40.395C146.729 40.395 144.317 40.8389 146.385 41.5046L149.745 43.3539L160.514 41.7265L156.206 45.3511C156.206 45.3511 154.139 46.5347 155.862 47.4224L158.102 50.0854C158.102 50.0854 160.342 51.047 161.979 50.0114C161.979 50.0114 163.616 48.0142 167.234 47.4963L176.711 44.3155C176.711 44.3155 180.071 44.0197 180.416 42.9841L183.432 39.5814C183.604 39.5814 242.793 35.217 245.98 30.6307ZM139.148 9.84465C139.148 9.84465 139.751 8.29124 136.563 7.62549C136.563 7.62549 134.668 7.84743 133.978 6.0721C133.978 6.0721 72.3774 4.07486 11.4656 13.0994C11.4656 13.0994 10.5179 13.9871 11.8102 14.8747L20.5119 20.7925C20.5119 20.7925 21.8042 21.9021 23.6996 21.0144C23.6996 21.0144 44.3769 17.1679 57.214 17.1679C57.214 17.1679 68.7588 14.8748 65.5711 14.209C62.3833 13.5433 50.6662 14.6528 50.6662 14.6528C50.6662 14.6528 71.8604 10.9542 97.7932 10.7323C97.7932 10.7323 60.3156 15.0967 0.954611 37.88C0.954611 37.88 -0.940805 38.7677 0.60999 40.0992L4.65929 42.3183C4.65929 42.3183 7.50241 44.9813 10.4317 43.4279C10.4317 43.4279 13.4471 42.2443 17.1518 42.6882C17.1518 42.6882 18.8749 43.6498 21.4596 41.7265C21.4596 41.7265 21.8042 40.3951 28.5243 38.2499C28.5243 38.2499 66.6911 20.4966 117.006 10.6583C117.006 10.5104 126.052 9.40082 139.148 9.84465ZM412.26 34.5513C411.915 33.2198 409.762 33.8116 409.762 33.8116L406.574 35.5869C405.023 36.9923 406.057 38.5457 406.057 38.5457C408.555 38.8416 409.934 42.3923 409.934 42.3923C411.485 43.7238 412.605 42.6882 412.605 42.6882L413.639 42.2443C414.845 42.4663 414.672 40.9128 414.672 40.9128C414.328 36.1047 412.26 34.5513 412.26 34.5513Z" fill="#FAFF00"/>
</svg>
