<svg width="250" height="57" viewBox="0 0 250 57" fill="none" xmlns="http://www.w3.org/2000/svg">
<path d="M62.8578 27.4796L66.1586 24.2972L77.4232 24.3414V27.4796H108.493C108.493 27.4796 104.511 25.4022 104.563 23.3248C104.668 14.7941 137.571 14.1753 140.924 17.3135L137.414 23.3248C134.532 22.4408 130.341 21.5567 127.145 21.5567C119.443 21.5567 118.133 25.4022 125.573 25.0928L123.844 28.673C123.844 28.673 123.529 28.7172 121.643 28.7172C114.046 28.7172 112.16 32.0765 122.01 32.2533C128.035 32.3859 128.821 29.2918 126.097 28.673L128.088 25.0928L148.364 25.0486L159.314 1.75491H140.714L135.528 11.6116L130.76 1.84331H110.222L100.11 21.9987L98.0662 1.84331H68.9355L43.0531 27.4796H62.8578ZM77.8423 11.8326V16.8273H72.4458L77.8423 11.8326Z" fill="#FF3000"/>
<path d="M37.4995 27.4797L63.6962 1.79919H43.6295L29.7976 16.0318L29.0641 1.84339H7.53039L8.47347 27.4797H37.4995Z" fill="#FF3000"/>
<path d="M193.003 25.6674L197.666 17.2693C163.401 24.253 173.827 4.49539 200.234 11.6117L204.687 3.61137C156.642 -13.0964 126.883 39.5906 193.003 25.6674Z" fill="#FF3000"/>
<path d="M44.101 29.9107L39.5427 38.574H30.5311L34.9845 29.9107H12.7173L0.300049 55.5912H22.1481L25.8157 48.4749H34.4606L30.793 55.5912H52.9555L65.3727 29.9107H44.101Z" fill="#FF3000"/>
<path d="M191.798 40.2094C191.274 44.9389 202.958 45.8671 204.53 46.2649C206.102 46.6627 206.678 48.1655 204.635 48.5191C198.662 49.5358 190.069 47.3699 187.973 45.8229L184.358 52.8066C186.349 55.326 229.993 62.3981 231.67 46.7953C232.298 40.9609 220.353 40.8283 217.523 40.6515C215.113 40.4747 214.956 38.4414 217.681 38.2204C222.658 37.8226 229.574 38.6624 231.827 40.342L235.652 32.9164C232.403 29.6455 193.475 25.6675 191.798 40.2094Z" fill="#FF3000"/>
<path d="M69.8785 29.9107L57.4613 55.5912H80.1476L93.0888 29.9107H69.8785Z" fill="#FF3000"/>
<path d="M246.549 8.91547L249.85 1.79919H209.193L197.037 27.5239L237.642 27.4797L241.31 19.5678L223.077 19.612L224.596 17.2252H242.358L245.554 10.9045H227.216L228.369 8.91547H246.549Z" fill="#FF3000"/>
<path d="M165.235 47.2815L166.492 44.9389H185.459L188.183 39.016H169.059L170.474 36.585H189.231L192.427 29.9107H151.036L139.038 55.5912H180.167L184.358 47.2815H165.235Z" fill="#FF3000"/>
<path d="M141.762 29.9107C136.366 42.0216 96.3372 41.8006 99.4285 32.2533H95.6561L84.6535 55.5912H104.039L109.069 46.0881L113.575 55.5912H134.113L146.949 29.9107H141.762Z" fill="#FF3000"/>
</svg>
