<svg xmlns="http://www.w3.org/2000/svg" width="176" height="96" fill="none" viewBox="0 0 176 96"><path fill="#fff" d="M56.8 64a26.2 26.2 0 0 1-.6 5.3c0 1.1-.2 2.2-.3 3.1l-.1 2.3-2.6 2.7-1.4 1.5-1.5 2.7c-.3 1-.5 1.8-.4 2.7v1l.1 1.1v1.2c0 .3 0 .8.2 1.5v1.4c0 .6 0 1.2-.3 1.8-.1.6-.5 1.2-1 1.7-.3.4-.8.7-1.3 1-.5.4-1 .5-1.5.5l-1.4-.1a65 65 0 0 0-5.4-.5l-1.2.4-1 .3-.9.2c-.7 0-1.5-.5-2.4-1.4l-2-2.1-.2-1-.2-1.4c0-.3 0-.8.2-1.4v-2a12501 12501 0 0 0 .4-3.4c0-1.3-.3-2.6-1-4-.4-.8-.9-1.4-1.4-1.8L28 76.1H1.9A10.7 10.7 0 0 1 0 69.8l.1-2.4a78 78 0 0 1 .8-6.2l.2-2.3c0-1.1-.2-2.2-.4-3.2L2.2 52a491.9 491.9 0 0 1 4.5-9.5c1.4-2.5 3.2-6.3 5.6-11.4a55.7 55.7 0 0 1 3.1-5.2 396.4 396.4 0 0 0 2.8-8 108.5 108.5 0 0 1 8.6-16.7l.8-.1 1-.5a12507.6 12507.6 0 0 1 2-.7c.7 0 1.4.4 1.9 1.3L35 .1a12.5 12.5 0 0 0 6.3.5 31 31 0 0 1 6.4.4c1.5.4 2.5 1.4 3 3-.4 1-.7 2.9-.7 5.5v3.3c-.2.9-.6 1.6-1.3 2.3l2 40c4 1.2 6 4.2 6.1 9v-.2zM42 18.7c-.1-.4-.3-.7-.7-1-.3-.2-.7-.3-1.2-.3h-2.8c-.5 0-.6 0-.4.1 1.2 1 2.5 1.6 3.8 1.6.4 0 .9-.2 1.3-.4zm2.5 7l-.7-1.1-.7.7 1.2.6h.2v-.3zM41.4 24c-.3-.5-.8-.8-1.3-.8-.6 0-1 .3-1.4.8l.7.6h.8c.5 0 .9-.2 1.2-.6zM38 21.4c0-.5-.4-.7-1-.7-.8 0-1.2.2-1.5.7l.6.7h1c.5 0 .8-.2.9-.7zm2.3 9.1c-.4 0-.7.1-.9.3a3 3 0 0 0-.7.3l.7.7.7.2c1 0 1.8-.5 2.5-1.5h-2.3zm-6.7-8.4a.8.8 0 0 0-.6-.2c-1 0-1.7.7-1.9 2.2 0-.3.3-.4.6-.5a11 11 0 0 0 1.6-.6c.3-.2.4-.4.4-.7l-.1-.2zm-10.1-6.5l2.5 2.6.8-.6-3.3-2zM43.1 35l-.5.6.5.7.7-.7-.7-.6zM38 28c-1.7-1.4-3.3-2.1-4.7-2.1-.8 0-1.5.2-2.2.6l1 .5 2.2.3c1.3.2 2.2.8 2.6 1.8l1-1.3v.1zm0 6.4c0-.6-.4-.9-1-.9-.8 0-1.2.3-1.5.9l.6.6h1c.5 0 .8-.2.9-.6zm.7 6.4l-.7.6.7.8.7-.8-.7-.6zM27 30.2h-1v1h1v-1zm18.1 22.2l-.6-1-.7.6 1 .7h.3v-.3zM37 43.6l-.8.6.8.6.6-.6-.6-.6zm7 11c-.5-.5-1-.7-1.6-.7-.8 0-1.3.2-1.7.7l.8.6 1.4.1c.5 0 .9-.2 1-.7zm-6.1-4.2h-.9v1h.9v-1zm5 11H42v1h.8v-1zM20.9 41h-1.1l1.1.6V41zM35 39l-.6-.1c-.7 0-1.1.2-1.3.7a9 9 0 0 1-.5-3.3v-.6l-2-3.3h-.1a2 2 0 0 0-1 .4l-1.1.6-1 .6-1 .2c-.3 0-.6-.1-.8-.4l-.7.7c.5.1.8.3 1 .6.2.1.3.4.3.7l-.4 1L25 38l-.7 1.4c-.2.6-.2 1 0 1.4-.5.4-.9 1.1-1.3 2a177.9 177.9 0 0 1-3.8 9.3 5.4 5.4 0 0 1-5.2 2.4c.4.4 1.6.6 3.5.6 1.1 0 1.9.4 2.4 1.3v.7c0 .7-.3 1.1-.7 1.2.2.5.5.7.9.7 0 0 .2 0 .3-.2l.6-.4.6-.4.6-.3h.2c.6.4 2 .6 4.6.6 1.4 0 2.4.7 3 2l.6-.7v-.2c0-.4-.2-.7-.7-1a8 8 0 0 1-1-.2c0-.2-.2-.3-.3-.4 2.2-.8 3.4-2.7 3.6-5.6.4-3.7 1-6 1.5-6.8l-1.1-1.3-.1-2.2c0-.8.2-1.4.6-1.8l1.1.7c.7 0 1-.4.9-1.3V39zm9.3 27.6h-1v1h1v-1zm-6.7-6.9h-.8a2 2 0 0 0-1 .2l-.9.3a25 25 0 0 0-1.8.8c.2.5.7.8 1.5.8H36l.3-.3.4-.5.5-.4.2-.6v-.3zm2.6 4.6c-.5-.5-1-.7-1.9-.7-1 0-1.7.4-2 1.4l.7.6.6.1c1 0 1.9-.5 2.6-1.4zM15.9 42.9h-.6l.6.7v-.7zm29.2 30.5c-.1-.5-.4-.7-1-.7-.5 0-.8.2-1 .7.3.5.7.7 1.4.7h.6v-.7zm-9-6.5c-.3-.9-1.2-1.5-2.7-2l-1.5-1a3 3 0 0 1-.8-1L33 65c-.3.2-.4.4-.4.6l.2.5.8 1.4 1.5.1c.6 0 1-.2 1-.7zm5.3 6.5c-.3-.5-.7-.7-1.2-.7-.3 0-.6.2-.8.7l.7.7h.1l1.2-.7zm-12.9-11H28c-.7 0-1-.2-1.1-.6 0 .9.4 1.3 1.3 1.3l.4-.1v-.6zM12.7 48h-.5l.5.6v-.6zm24.8 24h-.7c-1-.2-1.8.2-2.4 1.3.2.5.6.7 1.3.7h.4l.3-.2.4-.5.5-.5.2-.6v-.2zm1.2 4H38c-.6 0-1 .1-1 .5.4.5.7.7.8.7h.2l.7-1V76zm-6-5h-.9v1h1v-1zm-9.2-8.7l-.6.6.6.7.6-.7-.6-.6zm2.5 3.2v.6l.8-.6H26zm15.6 16.5h-1v1h1v-1zM23 66.4c0-.5-.3-.8-1-.8-.3 0-.9.4-1.7 1.3.3.6.7.8 1.3.6h.7l.7-1zm-6.9-5.7h-.8v1h.8v-1zm1.8 3.6h-1.4l.7 1.3.7-1v-.3zm19.6 21.4l-.6-.6.6.6zM114.6 57.5c0 .8 0 2-.3 3.5l-1 5.4.5.6-.6 3.1a171.2 171.2 0 0 1-1.1 8l-.7 5-1.3 3c-.7 1-1.7 2.3-3 3.7a23.4 23.4 0 0 1-6.5 4.8A58.6 58.6 0 0 1 88.8 96c-5.1 0-9.5-.7-13-2.2-3.4-1.5-6-3.8-7.7-6.9a42.2 42.2 0 0 1-3.3-10c-.7-3.8-1.2-8.2-1.5-13.1l.6.1c.2 0 .5 0 .8-.2.3-.3.7-.6 1-1.1l-1-1.3-1 .2a1073.7 1073.7 0 0 0-.6-29c.1-1.4.2-2.1.5-2.2a39 39 0 0 1 2.9-18.4C68.9 7 72.4 3.8 77 1.9c1.6-.6 3.5-1.1 5.6-1.4 2.2-.3 4.6-.5 7.1-.4 4.4 0 8.2.6 11.4 2a19.1 19.1 0 0 1 9.7 9.4 59.1 59.1 0 0 1 2 9.7l.8 13.5 1 22.2v.7-.1zm-18.4-54h-1v1h1v-1zm6.5 14.8l-.6-1-.7.5 1 .8h.3v-.3zm-5.6-3c-.3-.5-.6-.7-.8-.7-.4 0-1 .4-1.7 1.3h2.5v-.6zm10.3 11.2h-1v1h1v-1zm-6-4.8c-.1-.5-.5-.8-1.2-.8-.6 0-1 .3-1.2.8 0 .4.4.7 1 .7h1.4v-.7zM87.4 8h-1v1h1V8zm13.4 20.1v.6l.6-.6h-.6zM87.8 14h-.2c-.5 0-1 .2-1.1.7l.7.6 1.1-1.3H88zm15.3 19.5h-1v1h1v-1zm5.2 9.7l-.6-1-.7.5 1 .8h.3v-.3zM77.1 11.5c-.2-.5-.5-.7-1.2-.7-.6 0-1 .2-1.3.7l.6.6h.8c.6 0 1-.2 1.1-.6zm3.2 8.3l-.6.7.6.6.5-.6-.5-.7zm24.9 28h-.6l.6.7v-.6zm4.4 6.4l-.7.7.7.6.6-.6-.6-.7zm-1.6-1h-1v1h1v-1zM80.8 34h-.5l.5.6v-.6zm-9-5.5H71v1h1v-1zM96.5 30c-1.4-.8-2.2-2.3-2.3-4.4a54 54 0 0 0-.7-5.1c-1.7-1.8-3-2.7-4.1-2.7-1.1 0-2.3.5-3.5 1.5l-1.7 1.2-1.5 1.2c.4.1.7.4 1 .7.2.2.3.5.3.8 0 .2 0 .4-.2.7l-.5 1.1-.5 1v.8a194.2 194.2 0 0 0 .7 7.7l-.6 1v.8c0 .4 0 1 .2 1.6l.3 1.7c0 .7-.2 1.4-.7 2 .5.8.7 1.6.7 2.3l-.2.7-.5 3.3.7.6v4c0 1.7-.6 2.7-1.9 3h1.1c.7.3 1 1.8 1 4.7l-.2 1.2-.3 1.6-.4 1.6-.1 1.2a370.4 370.4 0 0 0 1.4 7.6c.3.1.7.5 1 1.2l1.2 2.1c.8 1.9 1.6 2.8 2.5 2.8.5 0 1.3-.3 2.2-1l-.7-.6c1.2-1.5 2.1-2.8 2.7-4 .6-1.3 1-2.5 1-3.6V70c0-.2.3-.6.7-1-.4-.5-.7-1-.7-1.6l.4-1.7.3-1.5a2 2 0 0 0-.7-1.6l.2-1a6.2 6.2 0 0 0 0-2.3c0-.5 0-1-.2-1.5v-1.3-1.2c0-1.8.5-3 1.3-3.6L94 50.4V47c0-1.4.7-2.2 2-2.4-1.3-.4-2-1-2-2.1a16.4 16.4 0 0 1 .4-3.2c0-.6-.1-1.1-.4-1.6.6-.6.9-1.2.9-2 0-.3 0-.5-.2-.9 0-.4-.2-.7-.3-1l-.2-1.1-.2-1c0-1 .5-1.7 1.3-2.4l1 .7h.3zm.2 25.9h-.9v1h1v-1zM71.5 32.6l-.6 1.3.6-.7v-.6zm29.3 31.2h-1.3l1.3.7v-.7zm1 8h-1v1h1v-1zM77 50.4v.7l.7-.7h-.7zm20 25.6h-.6l.6.6V76zM80.3 59.4c-1-1-1.6-1.3-2-1.3h-.5l1.9 1.9.6-.6zM94.9 75h-1v1h1v-1zm5.3 7.9c-.2-.4-.5-.6-.9-.6-.5 0-.8.2-1 .6l.7.7h.2l1-.7zm-34-34.2h-1v1h1v-1zm27.5 32h-1v1h1v-1zm-21-19.5l-.5 1.3 1.2-1.3h-.6zm7 8.2H79c-.3 0-.6.1-.8.3-.2 0-.3.2-.4.5l.6.4.3.2h.3l.7-1.1v-.3zM89 82.4h-.7c-.3 0-.6 0-.8.2-.2 0-.3.2-.3.4l.9.7h.2l.7-1.1v-.2zm1.9 6.3h-.7l.7.7v-.7zm-3.5-3.5h-1v1h1v-1zM82 81l-.6-.6.6 1.4V81zm-6.9-5c-.4-.5-.8-.7-1.4-.7-1.2 0-2 .4-2.3 1.3h2l1-.1.7-.5zM176 64a26.2 26.2 0 0 1-.6 5.3c0 1.1-.2 2.2-.3 3.1l-.2 2.3-2.5 2.7L171 79c-.7 1-1.2 1.9-1.5 2.7-.4 1-.5 1.8-.4 2.7v1l.1 1.1v1.2l.1 1.5.2 1.4c0 .6-.2 1.2-.4 1.8-.2.6-.5 1.2-1 1.7-.3.4-.8.7-1.3 1-.5.4-1 .5-1.6.5l-1.4-.1a64.1 64.1 0 0 0-5.3-.5l-1.2.4-1 .3-.9.2c-.7 0-1.5-.5-2.4-1.4l-2-2.1c0-.4-.2-.8-.3-1v-1.4-1.4l.2-2 .2-1.9.1-1.5c0-1.3-.3-2.6-1-4-.4-.8-.9-1.4-1.4-1.8-.5-.5-1-.9-1.6-1.2h-26.1a10.6 10.6 0 0 1-2-6.2c.2-.7.2-1.5.2-2.4a77.9 77.9 0 0 1 .8-6.2l.1-2.3c0-1.1 0-2.2-.3-3.2l1.5-3.7a487.2 487.2 0 0 1 4.4-9.5c1.5-2.5 3.3-6.3 5.7-11.4a56.7 56.7 0 0 1 3.1-5.2 440 440 0 0 0 2.8-8A108.5 108.5 0 0 1 146 1.3l.8-.1 1-.5a1386.5 1386.5 0 0 1 2-.7c.7 0 1.3.4 1.9 1.3L154 .1a12.5 12.5 0 0 0 6.4.5 31 31 0 0 1 6.4.4c1.5.4 2.5 1.4 3 3-.4 1-.7 2.9-.7 5.5.1 1.2 0 2.4-.1 3.3-.2.9-.5 1.6-1.2 2.3l2 40c4 1.2 6 4.2 6.1 9v-.2zm-14.8-45.2c-.1-.4-.4-.7-.7-1-.4-.2-.7-.3-1.2-.3h-2.8c-.5 0-.6 0-.4.1 1.2 1 2.4 1.6 3.8 1.6.4 0 .9-.2 1.3-.4zm2.5 7l-.7-1.1-.7.7 1.2.6h.2v-.3zm-3.1-1.7c-.3-.5-.8-.8-1.3-.8-.6 0-1.1.3-1.4.8l.7.6h.8c.5 0 .9-.2 1.2-.6zm-3.4-2.7c-.1-.5-.4-.7-1-.7-.8 0-1.2.2-1.5.7l.6.7h1c.5 0 .8-.2.9-.7zm2.3 9.1c-.4 0-.7.1-1 .3a3 3 0 0 0-.6.3l.7.7.7.2c1 0 1.8-.5 2.4-1.5h-2.2zm-6.8-8.4a.8.8 0 0 0-.5-.2c-1 0-1.7.7-2 2.2.2-.3.4-.4.7-.5a10.9 10.9 0 0 0 1.6-.6c.2-.2.4-.4.4-.7l-.2-.2zm-10-6.5l2.4 2.6.9-.6-3.3-2zM162.3 35l-.6.6.6.7.7-.7-.7-.6zm-5.1-7c-1.7-1.4-3.3-2.1-4.7-2.1-.8 0-1.5.2-2.2.6l1 .5 2.1.3c1.4.2 2.3.8 2.7 1.8l1-1.3v.1zm0 6.4c-.1-.6-.4-.9-1-.9-.8 0-1.2.3-1.5.9l.6.6h1c.5 0 .8-.2.9-.6zm.7 6.4l-.7.6.7.8.7-.8-.7-.6zm-11.7-10.7h-1v1h1v-1zm18.1 22.2l-.6-1-.7.6 1 .7h.3v-.3zm-8.2-8.8l-.8.6.8.6.6-.6-.6-.6zm7 11c-.5-.5-1-.7-1.6-.7-.8 0-1.4.2-1.7.7l.8.6 1.4.1c.5 0 .9-.2 1-.7zm-6.2-4.2h-.8v1h.8v-1zm5 11h-.7v1h.8v-1zM140.2 41H139l1.2.6V41zm14-1.9l-.7-.1c-.6 0-1 .2-1.2.7a9 9 0 0 1-.5-3.3v-.6l-2-3.3h-.1a2 2 0 0 0-1 .4l-1.1.6-1 .6-1 .2c-.3 0-.6-.1-.8-.4l-.7.7c.4.1.7.3.9.6.2.1.4.4.4.7l-.4 1-.8 1.3-.7 1.4c-.2.6-.2 1 0 1.4-.5.4-1 1.1-1.3 2a171 171 0 0 1-3.9 9.3 5.4 5.4 0 0 1-5.1 2.4c.4.4 1.6.6 3.5.6 1 0 1.9.4 2.3 1.3v.7c0 .7-.2 1.1-.7 1.2.3.5.6.7 1 .7 0 0 .2 0 .3-.2l.6-.4.6-.4.6-.3h.2c.6.4 2 .6 4.6.6 1.4 0 2.4.7 3 2l.6-.7v-.2c0-.4-.2-.7-.7-1a8 8 0 0 1-1-.2l-.3-.4c2.2-.8 3.4-2.7 3.6-5.6.4-3.7.9-6 1.4-6.8l-1-1.3-.1-2.2c0-.8.2-1.4.6-1.8l1.1.7c.6 0 1-.4.8-1.3V39zm9.3 27.6h-1v1h1v-1zm-6.7-6.9h-.8a2 2 0 0 0-1 .2l-.9.3a25.4 25.4 0 0 0-1.8.8c.2.5.7.8 1.5.8h1.6l.2-.3.5-.5.5-.4.2-.6v-.3zm2.6 4.6c-.5-.5-1.1-.7-1.9-.7-1 0-1.7.4-2 1.4l.7.6.6.1c1 0 1.9-.5 2.6-1.4zM135 42.9h-.6l.6.7v-.7zm29.2 30.5c-.1-.5-.5-.7-1-.7s-.8.2-1 .7c.3.5.7.7 1.4.7h.6v-.7zm-9-6.5c-.3-.9-1.2-1.5-2.7-2l-1.5-1a3 3 0 0 1-.8-1l1.9 2.1c-.3.2-.4.4-.4.6l.2.5.7 1.4 1.6.1c.6 0 1-.2 1-.7zm5.3 6.5c-.3-.5-.7-.7-1.2-.7-.3 0-.6.2-.8.7l.7.7h.1l1.2-.7zm-12.9-11h-.6c-.7 0-1-.2-1.1-.6 0 .9.4 1.3 1.2 1.3l.5-.1v-.6zM132 48h-.6l.6.6v-.6zm24.8 24h-.7c-1-.2-1.8.2-2.4 1.3.2.5.6.7 1.2.7h.5l.2-.2.5-.5.5-.5.2-.6v-.2zm1.2 4h-.7c-.6 0-1 .1-1 .5l.7.7h.3l.7-1V76zm-6-5h-1v1h1v-1zm-9.2-8.7l-.6.6.6.7.6-.7-.6-.6zm2.4 3.2v.6l.9-.6h-.9zm15.7 16.5h-1v1h1v-1zm-18.6-15.7c0-.5-.3-.8-1-.8-.3 0-.9.4-1.7 1.3.3.6.7.8 1.3.6h.7l.7-1zm-6.9-5.7h-.8v1h.8v-1zm1.8 3.6h-1.4l.7 1.3.7-1v-.3zm19.6 21.4l-.6-.6.6.6z"/></svg>
