<svg width="24" height="24" viewBox="0 0 24 24" xmlns="http://www.w3.org/2000/svg">
<path fill-rule="evenodd" clip-rule="evenodd" d="M17.3768 24H6.6229C2.97105 24 0 21.029 0 17.3769V6.62315C0 2.97117 2.97105 0 6.6229 0H17.3768C21.029 0 24.0001 2.97117 24 6.62315V17.3769C24 21.0288 21.029 24 17.3768 24ZM21.8707 17.3769V6.62315C21.8707 4.14533 19.8547 2.12933 17.3768 2.12933H6.6229C4.14521 2.12933 2.12934 4.14533 2.12934 6.62315V17.3769C2.12934 19.8548 4.14521 21.8708 6.6229 21.8707H17.377C19.8548 21.8707 21.8708 19.8548 21.8708 17.3769H21.8707ZM18.4436 7.13354C18.0333 7.13354 17.6302 6.96611 17.3406 6.67654C17.0495 6.38542 16.882 5.98239 16.882 5.57198C16.882 5.16028 17.0493 4.75711 17.3406 4.46755C17.6303 4.17657 18.0333 4.01041 18.4436 4.01041C18.8553 4.01041 19.2585 4.17657 19.548 4.46755C19.839 4.75711 20.0052 5.16028 20.0052 5.57198C20.0052 5.98225 19.839 6.38542 19.548 6.67654C19.2571 6.96611 18.8553 7.13354 18.4436 7.13354ZM11.9999 18.1842C8.58992 18.1842 5.81585 15.4101 5.81585 12.0003C5.81585 8.5903 8.58992 5.81609 11.9999 5.81609C15.4101 5.81609 18.1842 8.5903 18.1842 12.0003C18.1842 15.4101 15.4101 18.1842 11.9999 18.1842ZM11.9999 7.94528C9.76408 7.94528 7.94518 9.76431 7.94518 12.0001C7.94518 14.2358 9.76422 16.0547 11.9999 16.0547C14.2358 16.0547 16.0548 14.2358 16.0548 12.0001C16.0548 9.76431 14.2359 7.94528 11.9999 7.94528Z"/>
</svg>
