<svg width="26" height="20" viewBox="0 0 26 20" fill="none" xmlns="http://www.w3.org/2000/svg">
<path fill-rule="evenodd" clip-rule="evenodd" d="M16.5177 16.5816H9.4823V3.7406H16.5177V16.5816Z" fill="#F36523"/>
<path fill-rule="evenodd" clip-rule="evenodd" d="M26 10.122C26.0069 11.6525 25.5875 13.1539 24.7899 14.4537C23.9923 15.7535 22.849 16.799 21.4912 17.47C20.1334 18.141 18.6164 18.4102 17.1143 18.2469C15.6123 18.0835 14.1862 17.4941 13 16.5464C13.9567 15.7794 14.7297 14.8031 15.2612 13.6906C15.7926 12.578 16.0687 11.358 16.0687 10.122C16.0687 8.88599 15.7926 7.66601 15.2612 6.55344C14.7297 5.44086 13.9567 4.46454 13 3.6976C14.1863 2.75011 15.6123 2.16088 17.1143 1.9976C18.6163 1.83433 20.1332 2.10363 21.4909 2.77458C22.8486 3.44553 23.9919 4.4909 24.7896 5.79059C25.5872 7.09028 26.0067 8.59158 26 10.122Z" fill="#FA9F1B"/>
<path fill-rule="evenodd" clip-rule="evenodd" d="M9.931 10.1224C9.92934 8.88607 10.2047 7.6655 10.7363 6.55266C11.2679 5.43982 12.0419 4.46375 13 3.698C11.8137 2.75031 10.3877 2.16091 8.88562 1.99753C7.38359 1.83415 5.86652 2.10343 4.50877 2.77441C3.15101 3.44539 2.00765 4.49085 1.21007 5.79067C0.412489 7.09048 -0.00694559 8.5919 -3.81098e-05 10.1224C-0.00694559 11.6529 0.412489 13.1543 1.21007 14.4541C2.00765 15.7539 3.15101 16.7994 4.50877 17.4704C5.86652 18.1414 7.38359 18.4106 8.88562 18.2473C10.3877 18.0839 11.8137 17.4945 13 16.5468C12.0419 15.781 11.2679 14.805 10.7363 13.6921C10.2047 12.5793 9.92934 11.3587 9.931 10.1224Z" fill="#E71B26"/>
</svg>
