<svg width="35" height="9" viewBox="0 0 35 9" fill="none" xmlns="http://www.w3.org/2000/svg">

<path fill-rule="evenodd" clip-rule="evenodd" d="M19.4868 0.94929L17.276 5.3171H17.0508V-0.000209509H13.9096V8.99979H16.576C16.9125 9.00367 17.2434 8.9167 17.5313 8.74871C17.8192 8.58072 18.0527 8.33841 18.2052 8.04917L20.4167 3.68079H20.6407V8.99979H23.7825V-0.000209509H21.1167C20.7801 -0.00413376 20.4491 0.0828141 20.1611 0.250805C19.873 0.418796 19.6395 0.661131 19.4868 0.950415V0.94929ZM7.7 1.18104L6.39392 5.31767H6.16992L4.8615 1.18104C4.74223 0.83249 4.5105 0.529849 4.20017 0.317328C3.88983 0.104807 3.51716 -0.00645651 3.13658 -0.000209509H0V8.99979H3.14008V3.68023H3.36525L5.16017 8.99979H7.40367L9.19858 3.68079H9.42258V8.99979H12.5638V-0.000209509H9.42667C9.0458 -0.00681966 8.67273 0.104276 8.36204 0.316822C8.05136 0.529369 7.81936 0.832211 7.7 1.18104ZM25.1259 4.08917V8.99979H28.2607V6.13554H31.6324C32.3136 6.14498 32.9817 5.95433 33.5479 5.58891C34.1141 5.22349 34.5516 4.70061 34.8022 4.08973H25.1282L25.1259 4.08917Z" fill="#3BA634"/>
<path fill-rule="evenodd" clip-rule="evenodd" d="M31.6347 6.53465e-05H24.6791C24.9216 1.06014 25.5377 2.00639 26.4224 2.67774C27.3071 3.34909 28.4057 3.70405 29.5312 3.68219H34.9329C34.9775 3.48008 35 3.27401 35 3.06738C34.9747 2.23059 34.6061 1.43767 33.9752 0.862623C33.3443 0.287572 32.5026 -0.0226386 31.6347 6.53465e-05Z" fill="#009BDB"/>
</svg>
