<svg width="36" height="36" viewBox="0 0 36 36" fill="none" xmlns="http://www.w3.org/2000/svg">
<circle cx="18" cy="18" r="18" fill="white"/>
<path d="M13.42 23.175V14.22C13.42 13.875 13.45 13.5 13.135 13.485C12.91 13.455 12.67 13.455 12.415 13.455C11.68 13.455 11.65 13.485 11.65 14.22C11.65 14.16 11.65 15.24 11.635 17.475C11.635 17.97 11.65 18.015 11.56 18.3C11.53 18.48 11.305 18.51 11.23 18.33C11.2 18.27 11.17 18.195 11.14 18.105C10.99 17.565 10.435 15.72 10.195 14.925C10.165 14.79 10.105 14.595 10.03 14.355C9.94 14.085 9.88 13.89 9.85 13.785C9.79 13.575 9.655 13.47 9.475 13.47H8.05C7.705 13.485 7.735 13.845 7.735 14.31V23.085C7.735 23.565 7.675 23.94 8.14 24H8.665C9.505 24 9.52 24 9.52 23.19V19.935C9.52 19.62 9.535 19.41 9.58 19.29C9.655 19.11 9.85 19.065 9.94 19.245L10.12 19.74C10.09 19.665 10.465 20.805 11.23 23.19L11.305 23.4C11.35 23.505 11.365 23.58 11.38 23.64C11.53 24.105 12.22 24 12.58 24C13.375 24 13.42 23.97 13.42 23.175ZM19.8048 22.545C19.7598 22.2 19.4598 22.245 19.0098 22.23H17.5398C17.0448 22.215 16.9098 22.065 16.8798 21.585C16.8648 21.12 16.8648 20.715 16.8948 20.355C16.9248 19.71 17.0748 19.635 17.6448 19.635C18.0798 19.635 18.4248 19.635 18.6498 19.62C18.8598 19.605 18.9798 19.5 18.9798 19.29C19.0098 18.975 19.0098 18.66 18.9948 18.345C18.9798 17.985 18.8898 17.88 18.5298 17.88C18.4248 17.865 18.2448 17.865 18.0048 17.865C17.5398 17.865 17.2098 17.88 17.0298 17.715C16.9548 17.625 16.8948 17.475 16.8948 17.28C16.8648 16.8 16.8648 16.305 16.8798 15.795C16.9098 15.33 17.0448 15.18 17.5398 15.165H19.0248C19.4598 15.165 19.7748 15.195 19.8048 14.835C19.8348 14.49 19.8498 13.74 19.7148 13.605C19.6398 13.545 19.4448 13.5 19.0998 13.5H15.8598C15.1248 13.5 15.1098 13.53 15.1098 14.28V23.01C15.1098 23.565 15.0948 23.76 15.2298 23.88C15.3648 24 15.6198 24 15.8298 24H19.0848C19.3998 24 19.7598 24.03 19.7898 23.67C19.8348 23.31 19.8348 22.935 19.8048 22.545ZM29.1271 14.97C29.2171 14.355 29.2771 14.01 29.2771 13.92C29.3071 13.635 29.2171 13.5 28.9321 13.5C28.6621 13.485 28.3621 13.485 28.0321 13.485C27.5521 13.5 27.4921 13.545 27.4171 14.01C27.3721 14.22 27.3271 14.475 27.2821 14.805C27.1621 15.72 27.1021 16.14 26.9971 16.755C26.9521 16.995 26.6821 17.025 26.6071 16.785C26.5471 16.635 26.5171 16.515 26.5171 16.44C26.4421 15.99 26.2921 14.925 26.2321 14.565C26.2321 14.49 26.1571 13.515 25.7071 13.5C25.2721 13.485 24.8971 13.485 24.5971 13.5C24.3871 13.5 24.2671 13.62 24.2371 13.815C24.1771 14.115 24.1021 14.655 23.9821 15.45C23.9671 15.6 23.8621 16.41 23.8021 16.74C23.7871 16.92 23.6521 17.055 23.5621 17.025C23.4571 16.995 23.3971 16.905 23.3671 16.74C23.3071 16.395 23.1871 15.57 23.1571 15.345L22.9021 13.83C22.8421 13.41 22.6771 13.5 21.9571 13.5V13.485H21.7171C21.1171 13.47 20.9971 13.56 21.1171 14.205C21.3121 15.36 22.3921 21.945 22.4971 22.5L22.7071 23.655C22.7821 24.105 23.2771 24.015 23.7121 24.015C24.4321 24.015 24.4771 23.985 24.5821 23.28C24.6421 22.89 24.7621 22.065 24.9271 20.835C24.9721 20.61 25.0171 20.445 25.0771 20.385C25.1671 20.28 25.3021 20.295 25.3621 20.4C25.4221 20.595 25.4821 20.865 25.5271 21.21C25.5571 21.45 25.6321 21.84 25.7371 22.44C25.8271 22.95 25.8871 23.37 25.9171 23.67C25.9471 23.88 26.0521 23.985 26.2771 24C26.6221 24.015 26.9671 24.015 27.2821 24.015C27.6271 24 27.7171 23.91 27.7771 23.55V23.46C27.7921 23.43 27.7921 23.4 27.7921 23.37C28.0771 21.495 28.8271 16.905 29.1271 14.97Z" fill="#1D1D1D"/>
</svg>
