<svg width="14" height="24" viewBox="0 0 14 24" xmlns="http://www.w3.org/2000/svg">
<path fill-rule="evenodd" clip-rule="evenodd" d="M13.6324 14.5332C12.9102 15.296 12.0427 15.8488 11.078 16.2336C10.1662 16.5955 9.16715 16.7794 8.17883 16.9027C8.32756 17.0683 8.39762 17.1516 8.49138 17.2476C9.83429 18.6361 11.1826 20.0179 12.5201 21.411C12.976 21.8849 13.0719 22.4741 12.8208 23.028C12.546 23.6298 11.9316 24.0271 11.3292 23.9838C10.9476 23.9563 10.6491 23.7611 10.385 23.4882C9.37193 22.4376 8.33941 21.4064 7.34679 20.3388C7.05795 20.0281 6.91999 20.0875 6.66456 20.3558C5.64499 21.435 4.60924 22.5004 3.56812 23.5578C3.09928 24.0329 2.54316 24.1184 1.99996 23.8468C1.42334 23.5578 1.05691 22.9526 1.08493 22.344C1.10433 21.9317 1.30156 21.6166 1.57639 21.3356C2.90421 19.9687 4.22987 18.6007 5.55553 17.2316C5.64283 17.1425 5.72474 17.0454 5.85192 16.9038C4.0445 16.7108 2.41491 16.2518 1.02026 15.1271C0.846742 14.9888 0.667831 14.853 0.510476 14.6988C-0.100621 14.0936 -0.162054 13.4016 0.320789 12.6878C0.734653 12.0815 1.42873 11.916 2.14977 12.2642C2.28987 12.335 2.42244 12.4184 2.54962 12.5108C5.15028 14.3506 8.72202 14.4007 11.3324 12.5932C11.5911 12.3887 11.868 12.2231 12.1882 12.1375C12.811 11.9719 13.392 12.2106 13.7262 12.7679C14.1077 13.4107 14.1034 14.0353 13.6324 14.5332ZM6.9534 12.1477C3.7287 12.1363 1.08493 9.38432 1.10433 6.06019C1.12265 2.69838 3.76858 -0.0102481 7.02453 2.91495e-05C10.287 0.00802259 12.9059 2.75548 12.8898 6.15155C12.8725 9.46882 10.2104 12.1592 6.9534 12.1477ZM7.00083 3.10034C5.3874 3.10034 4.09838 4.43639 4.11132 6.10358C4.12317 7.74794 5.4111 9.05316 7.01591 9.04517C8.61533 9.0406 9.88926 7.71712 9.88387 6.06704C9.87848 4.41697 8.60132 3.10262 7.00083 3.10034Z"/>
</svg>
