<svg width="20" height="20" viewBox="0 0 20 20" fill="none" xmlns="http://www.w3.org/2000/svg">
<circle cx="10" cy="10" r="10" fill="white"/>
<path fill-rule="evenodd" clip-rule="evenodd" d="M10.7901 11.3604C10.8718 11.158 11.0818 10.8902 11.4202 10.5572C12.0743 9.91338 12.501 9.40479 12.7008 9.03104C12.9004 8.65728 13 8.26125 13 7.84255C13 7.0862 12.7281 6.42358 12.1846 5.85392C11.6408 5.28464 10.9088 5 9.98864 5C9.11421 5 8.40785 5.28118 7.86989 5.84393C7.3316 6.40668 7.04186 7.09081 7 7.89671L8.47145 8.11259C8.5743 7.55022 8.76249 7.13153 9.03634 6.85687C9.30986 6.58222 9.65023 6.44509 10.0571 6.44509C10.4792 6.44509 10.8147 6.57646 11.0639 6.83997C11.3128 7.1031 11.4374 7.41962 11.4374 7.78877C11.4374 8.0542 11.367 8.29735 11.2265 8.51784C11.135 8.65728 10.8556 8.95229 10.3881 9.40249C9.92018 9.85269 9.60837 10.2576 9.45263 10.6179C9.29656 10.9782 9.21869 11.4372 9.21869 11.9953C9.21869 12.0491 9.22064 12.2001 9.22453 12.4479H10.6788C10.671 11.9254 10.7083 11.5632 10.7901 11.3604ZM10.6788 15L10.6729 13.4494H9.21869L9.22453 15H10.6788Z" fill="#999999"/>
</svg>
