<svg width="24" height="20" viewBox="0 0 24 20" xmlns="http://www.w3.org/2000/svg">
<path fill-rule="evenodd" clip-rule="evenodd" d="M23.3385 0.369231C22.386 0.947692 21.3315 1.36769 20.2095 1.59538C19.311 0.612308 18.033 0 16.617 0C13.8975 0 11.6925 2.26154 11.6925 5.04923C11.6925 5.44462 11.736 5.83077 11.82 6.2C7.728 5.98923 4.0995 3.97846 1.6725 0.923077C1.248 1.66769 1.0065 2.53538 1.0065 3.46154C1.0065 5.21385 1.8765 6.76 3.1965 7.66462C2.3895 7.63692 1.6305 7.40923 0.966 7.03077V7.09385C0.966 9.54 2.664 11.58 4.914 12.0462C4.503 12.16 4.068 12.2231 3.618 12.2231C3.3 12.2231 2.9925 12.1908 2.691 12.1323C3.318 14.1385 5.1345 15.5985 7.2885 15.64C5.604 16.9938 3.48 17.8 1.1745 17.8C0.777 17.8 0.3855 17.7769 0 17.7308C2.1795 19.1631 4.7655 20 7.548 20C16.6035 20 21.555 12.3046 21.555 5.63077L21.54 4.97692C22.5045 4.26769 23.3415 3.37846 24 2.36615C23.1165 2.76769 22.17 3.04 21.174 3.16154C22.1895 2.53692 22.9695 1.54615 23.3385 0.369231Z"/>
</svg>
