<svg xmlns="http://www.w3.org/2000/svg" width="21" height="21" fill="none" viewBox="0 0 21 21">
    <g clip-path="12341234">
        <path d="M20.1 7.2c0-1.9-.7-3.7-2-5A7.2 7.2 0 0 0 12.8 0H8.6a7.2 7.2 0 0 0-7.2 7.2v3.4a7.2 7.2 0 0 0 4.3 6.6V19c0 1 .6 1.4 1 1.4s.7-.2 1-.5l2.2-2.2h3a7.2 7.2 0 0 0 7.2-7.2V7.2zM13 16.6H9.7c-.2 0-.4 0-.5.2L7 19v-2.3c0-.3-.2-.5-.4-.6a6 6 0 0 1-3.9-5.6V7.2A6 6 0 0 1 4.4 3a6 6 0 0 1 4.2-1.8H13A6 6 0 0 1 17.2 3a6 6 0 0 1 1.7 4.2v3.4a6 6 0 0 1-6 6z"/>
        <path d="M12.4 9.8a.6.6 0 0 0-.9 0l-.5.5-1.8-1.9.5-.5a.6.6 0 0 0 0-.8L7.4 4.8a.6.6 0 0 0-.9 0L5 6.4c-.8.9-.8 2.3 0 3.1l5 5c.5.4 1 .7 1.6.7.6 0 1.1-.3 1.6-.7l1.5-1.6a.6.6 0 0 0 0-.8l-2.2-2.3zm-.2 3.9a1 1 0 0 1-.7.3 1 1 0 0 1-.7-.3l-5-5a1 1 0 0 1 0-1.5L7 6.1l1.4 1.4-.5.5a.6.6 0 0 0 0 .8l2.7 2.8c.3.2.6.2.9 0l.5-.5 1.4 1.4-1.2 1.2zM11 2.7a.6.6 0 1 0 0 1.1A5.1 5.1 0 0 1 16 9a.6.6 0 0 0 1.3 0 6.3 6.3 0 0 0-6.4-6.3z"/>
        <path d="M13.5 9a.6.6 0 0 0 1.2 0c0-2-1.7-3.8-3.8-3.8a.6.6 0 1 0 0 1.2c1.4 0 2.6 1.2 2.6 2.6z"/>
    </g>
    <defs>
        <clipPath id="12341234">
            <path d="M0 0h20.5v20.5H0z" transform="translate(.5)"/>
        </clipPath>
    </defs>
</svg>
