<svg width="29" height="10" viewBox="0 0 29 10" fill="none" xmlns="http://www.w3.org/2000/svg">
<path fill-rule="evenodd" clip-rule="evenodd" d="M26.8266 9.83666L26.549 8.40111H23.5416L23.048 9.83666H20.5809L24.1097 0.892222C24.1933 0.666854 24.3444 0.475111 24.541 0.345129C24.7376 0.215146 24.9693 0.153768 25.2021 0.17H27.1048L29 9.83666H26.8266ZM25.4658 2.80111L24.2204 6.41778H26.1634L25.4658 2.80111ZM17.4483 2.85667C17.4483 3.94889 20.7506 4.18333 20.7506 6.69611C20.7506 9.11555 18.314 10.005 16.6997 10.005C15.782 10.0208 14.8714 9.83463 14.0285 9.45889L14.3808 7.28944C15.3474 8.11666 18.285 8.35055 18.285 7.04C18.285 5.72944 15.0118 5.69778 15.0118 3.20055C15.0118 0.545 17.8006 0 18.9746 0C19.7023 0.0187988 20.4221 0.160674 21.1056 0.42L20.7656 2.49611C19.7528 1.90278 17.4483 1.76222 17.4483 2.855V2.85667ZM10.2037 9.83666L11.6827 0.17H14.0494L12.5704 9.83666H10.2037ZM4.52937 9.83666L2.47359 1.44055C1.70967 0.940798 0.875124 0.567242 0 0.333333L0.0435 0.17H3.77107C4.03017 0.139827 4.29062 0.213127 4.49923 0.374926C4.70784 0.536726 4.84886 0.774814 4.89348 1.04056L5.69259 5.38889L5.96111 6.82055L8.21667 0.173333H10.7638L6.99867 9.84H4.52937V9.83666Z" fill="#0057A0"/>
<path fill-rule="evenodd" clip-rule="evenodd" d="M5.60506 4.87593L5.11743 1.2837C5.08595 0.913872 4.91486 0.571772 4.64123 0.33155C4.36759 0.0913269 4.01347 -0.0276633 3.65561 0.000369196H0V0.513703C1.24991 0.801082 2.41314 1.3997 3.3887 2.25759C4.27984 2.97869 5.03173 3.86694 5.60506 4.87593Z" fill="#FAA61A"/>
</svg>
