<svg width="26" height="15" viewBox="0 0 26 15" xmlns="http://www.w3.org/2000/svg">
<path fill-rule="evenodd" clip-rule="evenodd" d="M24.8695 11.6986C24.3037 11.0226 23.6597 10.4128 23.0382 9.82548C22.8165 9.6168 22.5874 9.40186 22.367 9.18443C21.7344 8.5684 21.7121 8.33347 22.2122 7.63496C22.559 7.15137 22.9268 6.66653 23.2834 6.19793C23.6053 5.77308 23.9383 5.33572 24.2579 4.89462L24.3235 4.8034C24.9352 3.95868 25.5666 3.08772 25.9023 2.03433C25.9901 1.75816 26.0818 1.34955 25.8725 1.00841C25.662 0.666027 25.2559 0.561063 24.9686 0.514829C24.8262 0.488587 24.6851 0.484838 24.5539 0.484838L20.5542 0.482339H20.5208C19.9153 0.482339 19.5079 0.767245 19.2752 1.35205C19.051 1.91062 18.807 2.50666 18.5272 3.07148C17.9712 4.1986 17.2643 5.49942 16.2414 6.5828L16.1994 6.62779C16.078 6.75775 15.9418 6.90145 15.8415 6.90145C15.8266 6.90145 15.8092 6.90145 15.7908 6.8952C15.5789 6.81398 15.4366 6.29915 15.4428 6.06423C15.4428 6.06173 15.4428 6.05798 15.4428 6.05298L15.4403 1.43827C15.4403 1.42452 15.4391 1.40703 15.4366 1.39204C15.3351 0.641036 15.1097 0.176191 14.2577 0.00749756C14.2354 0.0037488 14.2119 0 14.1897 0H10.0291C9.3518 0 8.97785 0.276158 8.62743 0.687271C8.53332 0.798484 8.3352 1.02716 8.43303 1.30457C8.53209 1.58697 8.85403 1.6457 8.95929 1.6657C9.47935 1.76441 9.77281 2.08305 9.85578 2.63787C10.0007 3.60255 10.0192 4.6322 9.91273 5.87429C9.88302 6.22167 9.82358 6.48784 9.727 6.71776C9.70347 6.77149 9.62423 6.94268 9.54249 6.94268C9.51649 6.94268 9.4422 6.93394 9.30476 6.84147C8.98281 6.62155 8.7463 6.3054 8.47142 5.91678C7.53529 4.59472 6.74901 3.1427 6.06798 1.46825C5.81537 0.852215 5.34483 0.506081 4.74057 0.496084C4.07687 0.484838 3.47508 0.48109 2.90053 0.48109C2.27397 0.48109 1.692 0.487338 1.12364 0.498584C0.638249 0.506081 0.301445 0.651033 0.124376 0.932189C-0.0526934 1.2096 -0.0403109 1.57698 0.159047 2.02058C1.7601 5.57065 3.21133 8.15354 4.86563 10.3903C6.02339 11.9598 7.18611 13.0444 8.52218 13.8041C9.93007 14.6089 11.5088 15 13.3464 15C13.5544 15 13.7699 14.9937 13.9879 14.985C15.0552 14.9325 15.4514 14.5477 15.5009 13.5105C15.5257 12.9782 15.5839 12.4221 15.8452 11.9485C16.0098 11.6511 16.1634 11.6511 16.2141 11.6511C16.3108 11.6511 16.4321 11.6948 16.5609 11.7773C16.7937 11.9298 16.9931 12.1309 17.1564 12.3096C17.31 12.4783 17.4623 12.6483 17.6146 12.8195C17.9427 13.1856 18.2833 13.5655 18.6375 13.9241C19.4138 14.7125 20.2695 15.0588 21.2527 14.9862H24.9203C24.9277 14.9862 24.9365 14.985 24.9439 14.9838C25.3091 14.9613 25.6261 14.7575 25.8118 14.4289C26.0434 14.0228 26.0385 13.503 25.7995 13.0381C25.5295 12.5158 25.1779 12.066 24.8695 11.6986Z"/>
</svg>
