<svg xmlns="http://www.w3.org/2000/svg" width="18" height="18" viewBox="0 0 18 18">
    <path d="M17.4 8.5a8.5 8.5 0 0 1-12.7 7.4L0 17.4l1.5-4.6A8.5 8.5 0 0 1 8.8 0c4.8 0 8.6 3.8 8.6 8.5zM8.8 1.3c-4 0-7.1 3.2-7.1 7.2 0 1.5.5 3 1.3 4.1l-.9 2.7 2.8-.9a7.2 7.2 0 0 0 11.1-6c0-3.9-3.2-7-7.2-7zm4.3 9.1l-.4-.2-1.4-.7c-.2 0-.3-.1-.5.1 0 .2-.5.7-.6.8-.1.1-.3.2-.5 0-.2 0-.8-.3-1.6-1C7.4 9 7 8.2 6.9 8c-.1-.2 0-.3 0-.4l.4-.4.2-.3v-.4L6.8 5c-.1-.5-.3-.4-.4-.4H6c-.2 0-.4 0-.6.3-.2.2-.7.7-.7 1.7s.7 2 .8 2.1C5.6 9 7 11 9.1 12c2.1.8 2.1.5 2.5.5.4 0 1.3-.5 1.4-1 .2-.5.2-.9.1-1z"/>
</svg>
