<svg xmlns="http://www.w3.org/2000/svg" viewBox="0 0 46 46" width="46" height="46" fill="none"><g clip-path="url(#clip0)"><path d="M41.4 23.8c-.3-1-.8-1.9-1.5-2.6-.8-.7-1.7-1-2.7-1.2-3.1-.3-7.9-.5-14.2-.5-6.3 0-11 .2-14.2.5a4.9 4.9 0 0 0-4.1 3.7c-.5 2-.7 5-.7 9 0 4.1.2 7.1.6 9a4.7 4.7 0 0 0 4.2 3.8c3.1.3 7.9.5 14.2.5 6.3 0 11.1-.2 14.2-.5a4.9 4.9 0 0 0 4.1-3.7c.5-2 .7-5 .7-9 0-4.1-.2-7.1-.6-9zm-26.6 2.6h-2.7V41H9.5V26.4H6.8V24h8v2.4zm7 14.6h-2.3v-1.4c-1 1-1.8 1.5-2.6 1.5s-1.3-.3-1.5-.9c-.2-.4-.2-1-.2-1.9v-10h2.3v10.3c0 .3.2.5.5.5.5 0 1-.4 1.5-1.1v-9.7h2.3V41zm8.7-3.8c0 1.2 0 2-.2 2.5-.3 1-1 1.4-1.9 1.4-.8 0-1.6-.4-2.3-1.4V41h-2.3V24H26v5.5c.7-.9 1.5-1.4 2.3-1.4 1 0 1.6.5 1.9 1.5l.2 2.5v5zm8.7-2.1h-4.6v2.2c0 1.2.4 1.8 1.2 1.8.5 0 .9-.3 1-1v-1.5h2.4v1.8c-.1.5-.3 1-.6 1.4-.6.9-1.6 1.3-2.8 1.3-1.2 0-2.1-.4-2.8-1.3-.5-.6-.7-1.6-.7-3v-4.4c0-1.3.2-2.3.7-3 .7-.8 1.6-1.3 2.8-1.3 1.1 0 2 .5 2.7 1.3.4.7.7 1.7.7 3v2.7z"/><path d="M27.2 30.2c-.4 0-.8.2-1.1.6v7.7c.3.4.7.6 1.1.6.7 0 1-.6 1-1.8V32c0-1.1-.3-1.7-1-1.7zM35.7 30.2c-.7 0-1.1.6-1.1 1.8V33h2.3V32c0-1.2-.4-1.8-1.2-1.8zM13.3 10.2v7H16v-7L19 0h-2.6l-1.7 6.8L12.8 0h-2.7l1.7 4.8c.8 2.4 1.3 4.2 1.5 5.4zM22.5 17.4c1.1 0 2-.5 2.7-1.3.5-.7.7-1.7.7-3V8.4c0-1.3-.2-2.3-.7-3a3.2 3.2 0 0 0-2.7-1.3c-1.2 0-2 .5-2.7 1.3-.5.7-.8 1.7-.8 3V13c0 1.4.3 2.4.8 3 .6 1 1.5 1.4 2.7 1.4zM21.4 8c0-1.2.3-1.8 1-1.8.8 0 1.2.6 1.2 1.8v5.4c0 1.2-.4 1.8-1.1 1.8-.8 0-1.1-.6-1.1-1.8V8zM29.5 17.4c.9 0 1.8-.6 2.7-1.6v1.4h2.3V4.4h-2.3v9.8c-.5.7-1 1-1.5 1-.3 0-.5-.1-.5-.5V4.4h-2.4v10.1c0 .9 0 1.5.2 2 .2.6.7.9 1.5.9z"/></g><defs><clipPath id="clip0"><path d="M0 0h46v46H0z"/></clipPath></defs></svg>
